<svg width="99" height="61" viewBox="0 0 99 61" fill="none" xmlns="http://www.w3.org/2000/svg">
<path d="M64.1879 57.155C63.4068 56.3739 63.4067 55.1075 64.1878 54.3264L80.1002 38.4147C81.3602 37.1548 80.4679 35.0005 78.6861 35.0005L1.99902 35.0005C0.894455 35.0005 -0.000974249 34.105 -0.000974152 33.0005L-0.000973803 29.0005C-0.000973706 27.8959 0.894457 27.0005 1.99903 27.0005L80.1169 27.0005C81.8987 27.0005 82.791 24.8462 81.5311 23.5863L64.1877 6.24282C63.4066 5.46178 63.4066 4.19545 64.1877 3.4144L67.0164 0.585618C67.7975 -0.195439 69.0638 -0.195427 69.8449 0.585642L98.1289 28.8706C98.9099 29.6516 98.9099 30.9178 98.129 31.6989L93.8867 35.9419L69.8448 59.9829C69.0637 60.7639 67.7975 60.764 67.0165 59.983L64.1879 57.155Z" fill="#222222"/>
</svg>
