<svg width="202" height="202" viewBox="0 0 202 202" fill="none" xmlns="http://www.w3.org/2000/svg">
<g clip-path="url(#clip0_133_190)">
<path d="M180.447 35.6876C181.1 35.0354 180.695 33.9645 179.777 34.0591H22.6663C21.3101 34.08 20.8688 35.6796 21.8299 36.6366L99.3597 113.845C100.141 114.622 101.404 114.622 102.184 113.843L180.447 35.6876Z" fill="#F7FF9A"/>
<path d="M191.035 44.9077C190.931 43.4513 189.2 43.0358 188.166 44.0661L108.684 123.22C106.582 125.31 103.738 126.483 100.773 126.483C97.808 126.483 94.9637 125.31 92.8611 123.22L13.9041 44.4818C13.0075 43.5877 11.5159 44.0155 11.5 45.2817V157.504C11.5 160.48 12.6823 163.335 14.7869 165.439C16.8915 167.544 19.7459 168.726 22.7222 168.726H179.833C182.81 168.726 185.664 167.544 187.769 165.439C189.873 163.335 191.056 160.48 191.056 157.504V45.2817C191.051 45.1568 191.044 45.0321 191.035 44.9077ZM30.9942 156.924C30.6196 157.295 30.1134 157.504 29.5859 157.504H24.61C23.5054 157.504 22.61 156.608 22.61 155.504V150.313C22.61 149.78 22.823 149.269 23.2017 148.893L61.9886 110.426C62.7706 109.651 64.0324 109.653 64.8111 110.432L69.8944 115.515C70.6777 116.299 70.6751 117.57 69.8885 118.35L30.9942 156.924ZM179.707 155.49C179.715 156.6 178.817 157.504 177.707 157.504H172.689C172.162 157.504 171.655 157.295 171.281 156.924L132.386 118.35C131.6 117.57 131.597 116.299 132.381 115.515L137.464 110.432C138.243 109.653 139.504 109.651 140.286 110.426L179.079 148.899C179.454 149.271 179.667 149.777 179.671 150.305L179.707 155.49Z" fill="#F7FF9A"/>
</g>
<defs>
<clipPath id="clip0_133_190">
<rect width="202" height="202" fill="white"/>
</clipPath>
</defs>
</svg>
