<svg width="202" height="202" viewBox="0 0 202 202" fill="none" xmlns="http://www.w3.org/2000/svg">
<g clip-path="url(#clip0_135_197)">
<path d="M181.407 33.6665C180.642 33.5877 179.871 33.5877 179.106 33.6665H21.9954C20.9884 33.682 19.9881 33.833 19.0215 34.1154L100.102 114.859L181.407 33.6665Z" fill="#F7FF9A"/>
<path d="M189.711 41.4663L108.014 122.827C105.911 124.918 103.067 126.091 100.102 126.091C97.1371 126.091 94.2928 124.918 92.1902 122.827L11.2219 42.0835C10.973 42.9984 10.841 43.9411 10.8291 44.8891V157.111C10.8291 160.088 12.0114 162.942 14.116 165.047C16.2206 167.151 19.075 168.334 22.0513 168.334H179.162C182.139 168.334 184.993 167.151 187.098 165.047C189.202 162.942 190.385 160.088 190.385 157.111V44.8891C190.34 43.72 190.113 42.5652 189.711 41.4663ZM29.7385 157.111H21.9391V149.087L62.7319 108.631L70.6435 116.543L29.7385 157.111ZM179.05 157.111H171.195L130.29 116.543L138.201 108.631L178.994 149.087L179.05 157.111Z" fill="#F7FF9A"/>
</g>
<defs>
<clipPath id="clip0_135_197">
<rect width="202" height="202" fill="white"/>
</clipPath>
</defs>
</svg>
