<svg width="481" height="52" viewBox="0 0 481 52" fill="none" xmlns="http://www.w3.org/2000/svg">
<path d="M135 0C144.057 0 152.032 4.6312 156.686 11.6546C157.896 13.4794 163.104 13.4794 164.314 11.6546C168.968 4.6312 176.943 0 186 0H295C304.057 0 312.032 4.6312 316.686 11.6546C317.896 13.4794 323.104 13.4794 324.314 11.6546C328.968 4.6312 336.943 0 346 0H455C469.359 0 481 11.6406 481 26C481 40.3594 469.359 52 455 52H346C336.943 52 328.969 47.3692 324.314 40.3462C323.105 38.5214 317.895 38.5214 316.686 40.3462C312.031 47.3692 304.057 52 295 52H186C176.943 52 168.969 47.3692 164.314 40.3462C163.105 38.5214 157.895 38.5214 156.686 40.3462C152.031 47.3692 144.057 52 135 52H26C11.6406 52 0 40.3594 0 26C0 11.6406 11.6406 0 26 0H135Z" fill="#222222"/>
</svg>
