<svg width="198" height="198" viewBox="0 0 198 198" fill="none" xmlns="http://www.w3.org/2000/svg">
<path d="M156.75 24.75C161.126 24.75 165.323 26.4884 168.417 29.5827C171.512 32.6771 173.25 36.8739 173.25 41.25V156.75C173.25 161.126 171.512 165.323 168.417 168.417C165.323 171.512 161.126 173.25 156.75 173.25H41.25C36.8739 173.25 32.6771 171.512 29.5827 168.417C26.4884 165.323 24.75 161.126 24.75 156.75V41.25C24.75 36.8739 26.4884 32.6771 29.5827 29.5827C32.6771 26.4884 36.8739 24.75 41.25 24.75H156.75ZM152.625 152.625V108.9C152.625 101.767 149.791 94.9262 144.748 89.8824C139.704 84.8386 132.863 82.005 125.73 82.005C118.717 82.005 110.55 86.295 106.59 92.73V83.5725H83.5725V152.625H106.59V111.952C106.59 105.6 111.705 100.403 118.058 100.403C121.121 100.403 124.059 101.619 126.225 103.785C128.391 105.951 129.607 108.889 129.607 111.952V152.625H152.625ZM56.76 70.62C60.4359 70.62 63.9613 69.1598 66.5605 66.5605C69.1598 63.9613 70.62 60.4359 70.62 56.76C70.62 49.0875 64.4325 42.8175 56.76 42.8175C53.0622 42.8175 49.5159 44.2864 46.9012 46.9012C44.2864 49.5159 42.8175 53.0622 42.8175 56.76C42.8175 64.4325 49.0875 70.62 56.76 70.62ZM68.2275 152.625V83.5725H45.375V152.625H68.2275Z" fill="#F7FF9A"/>
</svg>
