<svg width="199" height="199" viewBox="0 0 199 199" fill="none" xmlns="http://www.w3.org/2000/svg">
<path d="M109.449 61.5549C109.449 66.9003 115.912 69.5774 119.692 65.7976L158.86 26.6303C161.203 24.2872 165.002 24.2872 167.345 26.6303L172.931 32.2163C175.274 34.5595 175.274 38.3585 172.931 40.7016L134.326 79.3072C130.546 83.087 133.223 89.5498 138.568 89.5498H193C196.314 89.5498 199 92.2361 199 95.5498V103.45C199 106.764 196.314 109.45 193 109.45H138.007C132.661 109.45 129.984 115.913 133.764 119.693L172.93 158.859C175.273 161.202 175.273 165.001 172.93 167.344L167.344 172.93C165.001 175.273 161.202 175.273 158.859 172.93L119.692 133.763C115.912 129.983 109.449 132.66 109.449 138.006V193C109.449 196.314 106.763 199 103.449 199H95.5498C92.2361 199 89.5498 196.314 89.5498 193V138.568C89.5498 133.223 83.087 130.546 79.3072 134.326L40.7025 172.93C38.3594 175.273 34.5605 175.274 32.2173 172.931L26.6306 167.344C24.2873 165.001 24.2873 161.202 26.6305 158.859L65.7964 119.693C69.5762 115.913 66.8992 109.45 61.5538 109.45H6C2.68629 109.45 0 106.764 0 103.45V95.5498C0 92.2361 2.68629 89.5498 6 89.5498H60.9923C66.3377 89.5498 69.0147 83.087 65.2349 79.3072L26.6295 40.7018C24.2863 38.3586 24.2864 34.5595 26.6297 32.2163L32.2163 26.63C34.5595 24.287 38.3584 24.2871 40.7015 26.6302L79.3072 65.2359C83.087 69.0157 89.5498 66.3387 89.5498 60.9932V6C89.5498 2.68629 92.2361 0 95.5498 0H103.449C106.763 0 109.449 2.68629 109.449 6V61.5549Z" fill="#F7FF9A"/>
</svg>
