<svg width="246" height="49" viewBox="0 0 246 49" fill="none" xmlns="http://www.w3.org/2000/svg">
<rect width="245.146" height="48.1455" rx="24.0728" fill="#222222"/>
<path d="M25.6797 18.2915C25.6797 19.0265 26.5683 19.3946 27.0881 18.8748L33.7633 12.1996C34.0855 11.8774 34.6079 11.8774 34.93 12.1996L36.0368 13.3063C36.3589 13.6285 36.3589 14.1508 36.0368 14.473L29.4523 21.0575C28.9326 21.5772 29.3007 22.4658 30.0357 22.4658H39.3205C39.7761 22.4658 40.1455 22.8352 40.1455 23.2908V24.8557C40.1455 25.3113 39.7761 25.6807 39.3205 25.6807H29.9458C29.2108 25.6807 28.8427 26.5693 29.3625 27.089L36.0368 33.7633C36.3589 34.0855 36.3589 34.6079 36.0368 34.93L34.93 36.0368C34.6079 36.3589 34.0855 36.3589 33.7633 36.0368L27.088 29.3615C26.5683 28.8418 25.6797 29.2099 25.6797 29.9449V39.3205C25.6797 39.7761 25.3103 40.1455 24.8547 40.1455H23.2908C22.8352 40.1455 22.4658 39.7761 22.4658 39.3205V30.0357C22.4658 29.3007 21.5772 28.9326 21.0575 29.4523L14.473 36.0368C14.1508 36.3589 13.6285 36.3589 13.3063 36.0368L12.1996 34.93C11.8774 34.6079 11.8774 34.0855 12.1996 33.7633L18.8739 27.089C19.3936 26.5693 19.0255 25.6807 18.2905 25.6807H8.825C8.36936 25.6807 8 25.3113 8 24.8557V23.2908C8 22.8352 8.36937 22.4658 8.825 22.4658H18.2007C18.9357 22.4658 19.3037 21.5772 18.784 21.0575L12.1996 14.473C11.8774 14.1508 11.8774 13.6285 12.1996 13.3063L13.3063 12.1996C13.6285 11.8774 14.1508 11.8774 14.473 12.1996L21.0575 18.784C21.5772 19.3037 22.4658 18.9357 22.4658 18.2007V8.825C22.4658 8.36936 22.8352 8 23.2908 8H24.8547C25.3103 8 25.6797 8.36937 25.6797 8.825V18.2915Z" fill="#FDFF8D"/>
<path d="M61.3985 13.1255H65.2345L58.3605 33.1455H53.0545L46.2785 13.1255H50.1985L55.7565 30.4155L61.3985 13.1255ZM69.9462 12.4255V16.0095H66.3202V12.4255H69.9462ZM69.8902 17.7105V33.1455H66.3762V17.7105H69.8902ZM83.1136 27.9725H86.5016C85.6826 31.4585 82.9386 33.5655 79.2496 33.5655C74.6576 33.5655 71.5636 30.2825 71.5636 25.4105C71.5636 20.5525 74.6226 17.2905 79.1656 17.2905C83.6596 17.2905 86.5716 20.4685 86.5716 25.3755C86.5716 25.7395 86.5576 26.0965 86.5226 26.4955H75.0356C75.3296 29.0645 76.9186 30.6045 79.3476 30.6045C81.1886 30.6045 82.4276 29.7155 83.1136 27.9725ZM75.0846 23.9755H83.0926C82.7216 21.5325 81.3706 20.2235 79.1866 20.2235C76.9466 20.2235 75.4696 21.6095 75.0846 23.9755ZM97.3739 17.7105H101.763L105.123 30.7375L108.546 17.7105H112.046L107.748 33.1455H102.834L99.5019 20.5525L96.1699 33.1455H91.2629L86.9649 17.7105H90.5839L94.0069 30.8005L97.3739 17.7105ZM123.347 17.7105V22.4355C124.089 19.2225 126.077 17.2905 128.814 17.2905C132.545 17.2905 135.191 20.6575 135.191 25.4245C135.191 30.1915 132.545 33.5655 128.807 33.5655C126.077 33.5655 124.089 31.6265 123.347 28.4205V38.4375H119.833V17.7105H123.347ZM123.347 25.4245C123.347 28.6305 124.908 30.5135 127.547 30.5135C130.228 30.5135 131.663 28.7425 131.663 25.4245C131.663 22.1065 130.228 20.3425 127.547 20.3425C124.901 20.3425 123.347 22.2185 123.347 25.4245ZM136.532 25.4245C136.532 20.5245 139.647 17.2905 144.218 17.2905C148.789 17.2905 151.904 20.5245 151.904 25.4245C151.904 30.3245 148.782 33.5655 144.218 33.5655C139.647 33.5655 136.532 30.3245 136.532 25.4245ZM140.06 25.4245C140.06 28.5745 141.628 30.4575 144.225 30.4575C146.815 30.4575 148.376 28.5815 148.376 25.4245C148.376 22.2675 146.815 20.3985 144.225 20.3985C141.628 20.3985 140.06 22.2745 140.06 25.4245ZM157.089 25.7955V33.1455H153.575V17.7105H157.089V22.8485C157.726 19.6635 159.518 17.7105 162.654 17.7105H163.466V21.0285H162.311C158.335 21.0285 157.089 22.5545 157.089 25.7955ZM175.269 33.0265C174.016 33.3835 172.91 33.5585 171.937 33.5585C168.703 33.5585 166.981 31.6055 166.981 27.8255V20.5665H164.965V17.7105H166.981V14.1545H170.495V17.7105H175.269V20.5665H170.495V27.8325C170.495 29.7435 171.174 30.6115 172.714 30.6115C173.323 30.6115 174.149 30.4715 175.269 30.1845V33.0265ZM178.688 33.1455V20.5665H176.476V17.7105H178.688V17.3185C178.688 13.5385 180.697 11.5155 184.435 11.5155C185.24 11.5155 186.129 11.6065 187.053 11.7885V14.6305C186.276 14.4835 185.59 14.4065 185.009 14.4065C183 14.4065 182.041 15.3585 182.041 17.3395V17.7105H187.06V20.5665H182.209V33.1455H178.688ZM187.173 25.4245C187.173 20.5245 190.288 17.2905 194.859 17.2905C199.43 17.2905 202.545 20.5245 202.545 25.4245C202.545 30.3245 199.423 33.5655 194.859 33.5655C190.288 33.5655 187.173 30.3245 187.173 25.4245ZM190.701 25.4245C190.701 28.5745 192.269 30.4575 194.866 30.4575C197.456 30.4575 199.017 28.5815 199.017 25.4245C199.017 22.2675 197.456 20.3985 194.866 20.3985C192.269 20.3985 190.701 22.2745 190.701 25.4245ZM207.73 12.4255V33.1455H204.216V12.4255H207.73ZM213.309 12.4255V16.0095H209.683V12.4255H213.309ZM213.253 17.7105V33.1455H209.739V17.7105H213.253ZM214.927 25.4245C214.927 20.5245 218.042 17.2905 222.613 17.2905C227.184 17.2905 230.299 20.5245 230.299 25.4245C230.299 30.3245 227.177 33.5655 222.613 33.5655C218.042 33.5655 214.927 30.3245 214.927 25.4245ZM218.455 25.4245C218.455 28.5745 220.023 30.4575 222.62 30.4575C225.21 30.4575 226.771 28.5815 226.771 25.4245C226.771 22.2675 225.21 20.3985 222.62 20.3985C220.023 20.3985 218.455 22.2745 218.455 25.4245Z" fill="#FDFF8D"/>
</svg>
