<svg width="29" height="29" viewBox="0 0 29 29" fill="none" xmlns="http://www.w3.org/2000/svg">
<path fill-rule="evenodd" clip-rule="evenodd" d="M17.7711 1.56229C17.9977 1.33568 18.305 1.20837 18.6255 1.20837H25.7917C26.8962 1.20837 27.7917 2.1038 27.7917 3.20837V10.3745C27.7917 10.695 27.6644 11.0023 27.4378 11.229C26.9659 11.7008 26.2008 11.7008 25.7289 11.229L24.6589 10.159C23.8779 9.37792 22.6115 9.37792 21.8305 10.159L14.9923 16.9972C14.2112 17.7783 12.9449 17.7783 12.1638 16.9972L12.0028 16.8362C11.2218 16.0552 11.2218 14.7888 12.0028 14.0078L18.8411 7.16955C19.6221 6.3885 19.6221 5.12217 18.8411 4.34112L17.7711 3.27113C17.2992 2.79925 17.2992 2.03417 17.7711 1.56229ZM2.41667 4.53129C1.58249 4.53129 0.90625 5.20753 0.90625 6.04171V26.0938C0.90625 27.1984 1.80168 28.0938 2.90625 28.0938H22.4688C23.5733 28.0938 24.4688 27.1984 24.4688 26.0938V16.0105C24.4688 15.1763 23.7925 14.5 22.9583 14.5C22.1242 14.5 21.4479 15.1763 21.4479 16.0105V23.073C21.4479 24.1775 20.5525 25.073 19.4479 25.073H5.92709C4.82252 25.073 3.92708 24.1775 3.92708 23.073V9.55213C3.92708 8.44756 4.82251 7.55212 5.92708 7.55212H12.9896C13.8238 7.55212 14.5 6.87589 14.5 6.04171C14.5 5.20753 13.8238 4.53129 12.9896 4.53129H2.41667Z" fill="#222222"/>
</svg>
